<svg width="32" height="32" viewBox="0 0 32 32" fill="none" xmlns="http://www.w3.org/2000/svg">
<rect width="32" height="32" fill="#040615"/>
<path d="M3.49086 16.4731L3.49252 15.7274C3.97548 15.729 4.31234 15.6321 4.50312 15.4366C4.69674 15.2384 4.79405 14.9163 4.79504 14.4703L4.79747 13.3836C4.79854 12.9035 4.85907 12.5102 4.97907 12.2038C5.10192 11.8974 5.28001 11.6593 5.51334 11.4896C5.74667 11.3199 6.03102 11.203 6.3664 11.1387C6.70177 11.0716 7.08253 11.0388 7.50866 11.0401L7.50602 12.2248C7.1708 12.2237 6.91359 12.2698 6.73441 12.3629C6.55523 12.4532 6.43133 12.5935 6.36273 12.7836C6.29696 12.9737 6.26375 13.2165 6.26309 13.512L6.25998 14.9097C6.25949 15.1284 6.2221 15.3329 6.14781 15.523C6.07353 15.7131 5.93821 15.8802 5.74187 16.0245C5.54553 16.1659 5.26545 16.2772 4.90163 16.3584C4.54066 16.4368 4.0704 16.475 3.49086 16.4731ZM7.48452 21.8682C7.05839 21.8669 6.67778 21.8315 6.34271 21.7623C6.00763 21.6958 5.7238 21.577 5.49123 21.4058C5.25866 21.2346 5.08163 20.9954 4.96016 20.6882C4.84153 20.381 4.78274 19.9873 4.78381 19.5072L4.78623 18.4248C4.78722 17.9788 4.69135 17.6574 4.4986 17.4608C4.30871 17.2613 3.97228 17.1608 3.48933 17.1592L3.49099 16.4135C4.07054 16.4154 4.54061 16.4581 4.90122 16.5416C5.26468 16.6224 5.54426 16.7355 5.73996 16.881C5.93566 17.0237 6.07023 17.1903 6.14367 17.3809C6.21711 17.5715 6.25359 17.7747 6.25311 17.9906L6.24999 19.3884C6.24933 19.6838 6.28146 19.9268 6.34638 20.1174C6.41414 20.3079 6.5374 20.4504 6.71616 20.5447C6.89493 20.639 7.15193 20.6868 7.48715 20.6878L7.48452 21.8682ZM3.48933 17.1592L3.49252 15.7274L4.84337 15.7318L4.84018 17.1636L3.48933 17.1592ZM11.9644 11.3018L12.8849 11.3048L16.0341 18.9173L16.1108 18.9176L19.2939 11.3256L20.2144 11.3286L20.1949 20.0559L19.4449 20.0534L19.4606 13.0094L19.3924 13.0092L16.4321 20.0436L15.7077 20.0413L12.7788 12.9877L12.7107 12.9875L12.6949 20.0315L11.945 20.029L11.9644 11.3018ZM29.0644 16.4966L29.0627 17.2423C28.5798 17.2408 28.2415 17.3391 28.0478 17.5373C27.8571 17.7327 27.7612 18.0534 27.7602 18.4995L27.7578 19.5818C27.7567 20.062 27.6947 20.4552 27.5719 20.7616C27.4519 21.0681 27.2752 21.3061 27.0419 21.4758C26.8086 21.6455 26.5242 21.7625 26.1888 21.8268C25.8535 21.8939 25.4727 21.9267 25.0466 21.9253L25.0492 20.7449C25.3844 20.746 25.6416 20.7 25.8208 20.6068C26 20.5136 26.1225 20.372 26.1882 20.1819C26.2569 19.9917 26.2915 19.749 26.2921 19.4535L26.2953 18.0558C26.2957 17.8399 26.3331 17.6369 26.4074 17.4468C26.4817 17.2567 26.617 17.0909 26.8134 16.9495C27.0097 16.8053 27.2884 16.6939 27.6493 16.6156C28.0131 16.5344 28.4848 16.4947 29.0644 16.4966ZM25.0707 11.0972C25.4968 11.0986 25.8775 11.1339 26.2125 11.2032C26.5476 11.2696 26.8314 11.3885 27.064 11.5597C27.2966 11.7309 27.4722 11.9701 27.5908 12.2773C27.7123 12.5845 27.7725 12.9782 27.7714 13.4583L27.769 14.5449C27.768 14.9909 27.8625 15.3137 28.0524 15.5132C28.2451 15.7098 28.5829 15.8089 29.0659 15.8105L29.0642 16.5562C28.4847 16.5544 28.0132 16.5131 27.6497 16.4323C27.2891 16.3488 27.011 16.2357 26.8153 16.093C26.6196 15.9474 26.485 15.7794 26.4116 15.5888C26.3381 15.3982 26.3016 15.1936 26.3021 14.9748L26.3052 13.5771C26.3059 13.2816 26.2724 13.0386 26.2046 12.8481C26.1397 12.6575 26.0178 12.5165 25.8391 12.425C25.6603 12.3307 25.4033 12.283 25.0681 12.2819L25.0707 11.0972ZM29.0659 15.8105L29.0627 17.2423L27.7119 17.2379L27.7151 15.8061L29.0659 15.8105Z" fill="#FEAFBE"/>
</svg>
