<svg width="239" height="174" viewBox="0 0 239 174" fill="none" xmlns="http://www.w3.org/2000/svg">
<rect width="239" height="174" fill="#040615"/>
<path d="M39.8545 91.2479L39.8686 86.6492C42.8468 86.6562 44.9247 86.0567 46.1021 84.8507C47.2972 83.6272 47.8989 81.6402 47.9073 78.8898L47.9279 72.1888C47.9369 69.2281 48.3122 66.8026 49.0538 64.9123C49.8129 63.0221 50.9124 61.5531 52.3521 60.5054C53.7919 59.4576 55.546 58.7347 57.6145 58.3367C59.683 57.9211 62.0312 57.7165 64.659 57.7227L64.6366 65.028C62.5694 65.0231 60.9831 65.3085 59.8776 65.884C58.7722 66.442 58.0075 67.3073 57.5834 68.4801C57.1769 69.6529 56.9708 71.1503 56.9653 72.9723L56.9389 81.5915C56.9347 82.9405 56.7031 84.2013 56.244 85.374C55.785 86.5467 54.9496 87.5783 53.7381 88.4689C52.5266 89.342 50.7989 90.0299 48.5549 90.5327C46.3285 91.0179 43.4284 91.2563 39.8545 91.2479ZM64.4545 124.496C61.8267 124.49 59.4798 124.274 57.4139 123.848C55.3479 123.441 53.5982 122.709 52.1649 121.655C50.7316 120.6 49.6411 119.126 48.8936 117.232C48.1636 115.339 47.8032 112.911 47.8122 109.951L47.8327 103.276C47.8411 100.526 47.2515 98.5445 46.0639 97.3329C44.8939 96.1038 42.8198 95.4857 39.8416 95.4787L39.8557 90.88C43.4295 90.8884 46.3281 91.1493 48.5515 91.6626C50.7924 92.1585 52.5159 92.8545 53.7219 93.7509C54.9281 94.6297 55.7571 95.6565 56.209 96.8313C56.6609 98.0062 56.8848 99.2593 56.8807 100.591L56.8543 109.21C56.8487 111.032 57.0456 112.53 57.4449 113.705C57.8618 114.88 58.6212 115.758 59.7231 116.338C60.825 116.919 62.4096 117.212 64.4768 117.217L64.4545 124.496ZM39.8416 95.4787L39.8686 86.6492L48.1989 86.6689L48.1718 95.4984L39.8416 95.4787ZM92.1349 59.3118L97.811 59.3253L117.192 106.252L117.665 106.253L137.334 59.4188L143.01 59.4322L142.845 113.25L138.22 113.239L138.353 69.8012L137.933 69.8002L119.641 113.195L115.174 113.185L97.1486 69.7037L96.7281 69.7027L96.5951 113.141L91.9701 113.13L92.1349 59.3118ZM197.559 91.2531L197.544 95.8518C194.566 95.8448 192.48 96.453 191.285 97.6765C190.107 98.8825 189.514 100.861 189.506 103.611L189.485 110.286C189.476 113.247 189.092 115.672 188.333 117.562C187.591 119.453 186.501 120.922 185.061 121.969C183.621 123.017 181.867 123.74 179.799 124.138C177.73 124.554 175.382 124.758 172.754 124.752L172.776 117.473C174.844 117.478 176.43 117.193 177.535 116.617C178.641 116.042 179.397 115.167 179.803 113.995C180.227 112.822 180.442 111.324 180.448 109.502L180.474 100.883C180.478 99.5517 180.71 98.2997 181.169 97.127C181.628 95.9543 182.463 94.9314 183.675 94.0583C184.886 93.1677 186.605 92.4798 188.832 91.9945C191.076 91.4918 193.985 91.2447 197.559 91.2531ZM172.959 57.9789C175.586 57.9851 177.933 58.2009 179.999 58.6263C182.065 59.0341 183.815 59.7653 185.248 60.8198C186.682 61.8743 187.763 63.3485 188.493 65.2423C189.241 67.1361 189.61 69.5633 189.601 72.524L189.58 79.225C189.572 81.9754 190.153 83.9652 191.323 85.1943C192.51 86.4059 194.593 87.0153 197.571 87.0223L197.557 91.621C193.984 91.6126 191.076 91.3604 188.835 90.8646C186.612 90.3513 184.897 89.6552 183.691 88.7764C182.485 87.8801 181.656 86.8445 181.204 85.6697C180.752 84.4948 180.528 83.2329 180.532 81.884L180.559 73.2647C180.564 71.4427 180.359 69.9444 179.942 68.7696C179.543 67.5949 178.792 66.7259 177.69 66.1627C176.588 65.582 175.003 65.2892 172.936 65.2843L172.959 57.9789ZM197.571 87.0223L197.544 95.8518L189.214 95.8321L189.241 87.0026L197.571 87.0223Z" fill="#FEAFBE"/>
</svg>
