<svg width="159" height="68" viewBox="0 0 159 68" fill="none" xmlns="http://www.w3.org/2000/svg">
<path d="M0.854538 34.2479L0.86862 29.6492C3.84683 29.6562 5.92467 29.0567 7.10214 27.8507C8.29718 26.6272 8.89891 24.6402 8.90733 21.8898L8.92785 15.1888C8.93692 12.2281 9.31224 9.80263 10.0538 7.91234C10.8129 6.02208 11.9124 4.55308 13.3521 3.50535C14.7919 2.45762 16.546 1.73473 18.6145 1.33669C20.683 0.921131 23.0312 0.71646 25.659 0.722678L25.6366 8.02804C23.5694 8.02315 21.9831 8.30846 20.8776 8.88397C19.7722 9.44196 19.0075 10.3073 18.5834 11.4801C18.1769 12.6529 17.9708 14.1503 17.9653 15.9723L17.9389 24.5915C17.9347 25.9405 17.7031 27.2013 17.244 28.374C16.785 29.5467 15.9496 30.5783 14.7381 31.4689C13.5266 32.342 11.7989 33.0299 9.55492 33.5327C7.32852 34.0179 4.42839 34.2563 0.854538 34.2479ZM25.4545 67.4958C22.8267 67.4896 20.4798 67.2738 18.4139 66.8485C16.3479 66.4406 14.5982 65.7095 13.1649 64.6549C11.7316 63.6004 10.6411 62.1262 9.89362 60.2324C9.16362 58.3386 8.80315 55.9114 8.81222 52.9507L8.83266 46.276C8.84108 43.5256 8.2515 41.5445 7.06391 40.3329C5.8939 39.1038 3.81979 38.4857 0.841582 38.4787L0.855664 33.88C4.42952 33.8884 7.32812 34.1493 9.55146 34.6626C11.7924 35.1585 13.5159 35.8545 14.7219 36.7509C15.9281 37.6297 16.7571 38.6565 17.209 39.8313C17.6609 41.0062 17.8848 42.2593 17.8807 43.5907L17.8543 52.21C17.8487 54.032 18.0456 55.5303 18.4449 56.705C18.8618 57.8798 19.6212 58.7575 20.7231 59.3383C21.825 59.919 23.4096 60.2118 25.4768 60.2167L25.4545 67.4958ZM0.841582 38.4787L0.86862 29.6492L9.19885 29.6689L9.17181 38.4984L0.841582 38.4787ZM53.1349 2.31184L58.811 2.32527L78.1923 49.2519L78.6653 49.253L98.3337 2.41878L104.01 2.43221L103.845 56.2501L99.22 56.2392L99.353 12.8012L98.9325 12.8002L80.6412 56.1952L76.1739 56.1847L58.1486 12.7037L57.7281 12.7027L57.5951 56.1407L52.9701 56.1298L53.1349 2.31184ZM158.559 34.2531L158.544 38.8518C155.566 38.8448 153.48 39.453 152.285 40.6765C151.107 41.8825 150.514 43.8608 150.506 46.6112L150.485 53.2859C150.476 56.2466 150.092 58.6721 149.333 60.5623C148.591 62.4526 147.501 63.9216 146.061 64.9694C144.621 66.0171 142.867 66.74 140.799 67.138C138.73 67.5536 136.382 67.7583 133.754 67.752L133.776 60.473C135.844 60.4779 137.43 60.1925 138.535 59.617C139.641 59.0415 140.397 58.1674 140.803 56.9946C141.227 55.8218 141.442 54.3244 141.448 52.5025L141.474 43.8832C141.478 42.5517 141.71 41.2997 142.169 40.127C142.628 38.9543 143.463 37.9314 144.675 37.0583C145.886 36.1677 147.605 35.4798 149.832 34.9945C152.076 34.4918 154.985 34.2447 158.559 34.2531ZM133.959 0.978925C136.586 0.985142 138.933 1.20092 140.999 1.62626C143.065 2.03409 144.815 2.76527 146.248 3.8198C147.682 4.87433 148.763 6.34848 149.493 8.24226C150.241 10.1361 150.61 12.5633 150.601 15.524L150.58 22.225C150.572 24.9754 151.153 26.9652 152.323 28.1943C153.51 29.4059 155.593 30.0153 158.571 30.0223L158.557 34.621C154.984 34.6126 152.076 34.3604 149.835 33.8646C147.612 33.3513 145.897 32.6552 144.691 31.7764C143.485 30.8801 142.656 29.8445 142.204 28.6697C141.752 27.4948 141.528 26.2329 141.532 24.884L141.559 16.2647C141.564 14.4427 141.359 12.9444 140.942 11.7696C140.543 10.5949 139.792 9.72594 138.69 9.16272C137.588 8.58199 136.003 8.28918 133.936 8.28429L133.959 0.978925ZM158.571 30.0223L158.544 38.8518L150.214 38.8321L150.241 30.0026L158.571 30.0223Z" fill="#FEAFBE"/>
</svg>
